<?xml version="1.0" encoding="UTF-8"?>
<svg id="Layer_1" data-name="Layer 1" xmlns="http://www.w3.org/2000/svg" viewBox="0 0 233 400">
  <g>
    <rect style="fill: #e95420;" width="233" height="400"/>
    <circle style="fill: #fff;" cx="53.0024" cy="266.88777" r="23.9978"/>
    <circle style="fill: #fff;" cx="152.94432" cy="214.26696" r="23.9978"/>
    <path style="fill: #fff;" d="M107.12573,328.64848c-17.28557-3.70388-31.73357-14.74584-39.85538-30.39664-6.39635,2.9106-13.59172,3.79839-20.51835,2.52208,9.82865,24.12964,30.66727,41.65816,56.24601,47.13952,5.61453,1.20376,11.33598,1.78798,17.04072,1.75362-4.40743-5.79352-6.8622-12.77934-7.0264-20.06396-1.97652-.21956-3.95065-.54031-5.88659-.95461Z"/>
    <circle style="fill: #fff;" cx="147.53773" cy="328.78086" r="23.9978"/>
    <path style="fill: #fff;" d="M180.93176,319.96632c7.46408-9.40385,12.71539-20.52695,15.24844-32.34691,4.41602-20.61.29211-42.23188-11.31402-59.77281-2.76216,6.51043-7.4574,12.01948-13.49482,15.8045,6.47559,12.20371,8.4459,26.29278,5.54293,39.83963-1.42046,6.63071-3.93012,12.87958-7.46599,18.59673,5.64365,4.63176,9.6363,10.86249,11.48346,17.87886Z"/>
    <path style="fill: #fff;" d="M51.15083,232.47263c.60904-.03341,1.21856-.04964,1.82808-.04964,2.4228,0,4.84512.25774,7.24357.77132,3.91246.83815,7.59105,2.32065,10.95556,4.41125,10.80426-15.54007,28.23636-24.86373,47.12711-25.20453.09976-1.81185.34223-3.62322.72359-5.40213,1.10114-5.13961,3.34972-9.94845,6.55673-14.05995-30.17756-2.38986-59.50075,13.18267-74.43464,39.53368Z"/>
  </g>
  <rect style="fill: none;" x="27.59889" y="187.92852" width="176.60754" height="176.60754"/>
</svg>
