<svg width="166" height="49" viewBox="0 0 166 49" fill="none" xmlns="http://www.w3.org/2000/svg">
<g clip-path="url(#clip0_46_3256)">
<rect width="27.3636" height="48.2121" fill="#E95420"/>
<path d="M6.25735 35.6144C7.82206 35.6144 9.09051 34.3459 9.09051 32.7812C9.09051 31.2165 7.82206 29.9481 6.25735 29.9481C4.69264 29.9481 3.42419 31.2165 3.42419 32.7812C3.42419 34.3459 4.69264 35.6144 6.25735 35.6144Z" fill="white"/>
<path d="M18.0575 29.4021C19.6222 29.4021 20.8907 28.1336 20.8907 26.5689C20.8907 25.0042 19.6222 23.7358 18.0575 23.7358C16.4928 23.7358 15.2244 25.0042 15.2244 26.5689C15.2244 28.1336 16.4928 29.4021 18.0575 29.4021Z" fill="white"/>
<path d="M12.6482 40.0736C10.6068 39.6362 8.90149 38.3328 7.94274 36.4842C7.1876 36.8278 6.33765 36.9323 5.52002 36.7815C6.68021 39.6308 9.14064 41.7002 12.1612 42.3477C12.8237 42.4899 13.4992 42.5588 14.1735 42.5545C13.6532 41.8704 13.3634 41.0453 13.3441 40.1856C13.1103 40.1598 12.8776 40.1221 12.6492 40.0725L12.6482 40.0736Z" fill="white"/>
<path d="M17.4199 42.9223C18.9847 42.9223 20.2531 41.6538 20.2531 40.0891C20.2531 38.5244 18.9847 37.256 17.4199 37.256C15.8552 37.256 14.5868 38.5244 14.5868 40.0891C14.5868 41.6538 15.8552 42.9223 17.4199 42.9223Z" fill="white"/>
<path d="M21.3625 39.0488C22.2437 37.9382 22.8642 36.625 23.1626 35.23C23.684 32.7965 23.197 30.2434 21.8268 28.1729C21.5004 28.9421 20.9467 29.5917 20.2335 30.0387C20.9984 31.4801 21.2311 33.1434 20.8885 34.7431C20.7205 35.5262 20.4242 36.2641 20.0073 36.9385C20.6741 37.4857 21.1449 38.2215 21.3636 39.0499L21.3625 39.0488Z" fill="white"/>
<path d="M6.03892 28.7184C6.11109 28.7141 6.18327 28.713 6.25437 28.713C6.54092 28.713 6.82639 28.7432 7.1097 28.8046C7.57184 28.9037 8.00597 29.0782 8.40347 29.326C9.67893 27.4914 11.7375 26.3905 13.9674 26.3495C13.9793 26.1352 14.0084 25.9219 14.0525 25.7118C14.1829 25.1053 14.4479 24.5376 14.8271 24.0518C11.2636 23.7695 7.80129 25.6084 6.03784 28.7195L6.03892 28.7184Z" fill="white"/>
<path d="M40.9647 48.2118C39.7054 48.2118 38.6336 48.0201 37.7491 47.6376C36.8636 47.2541 36.1484 46.7252 35.6011 46.0498C35.0539 45.3754 34.6574 44.5858 34.4108 43.682C34.1641 42.7793 34.0413 41.8076 34.0413 40.767V28.8343H35.9027V40.5214C35.9027 41.5609 36.0255 42.4604 36.2722 43.2177C36.5189 43.975 36.8604 44.5998 37.2988 45.0921C37.7373 45.5844 38.2662 45.9496 38.8867 46.1866C39.5072 46.4236 40.201 46.5421 40.9669 46.5421C41.7328 46.5421 42.4265 46.4236 43.047 46.1866C43.6675 45.9496 44.1965 45.5844 44.6349 45.0921C45.0723 44.5998 45.4148 43.975 45.6615 43.2177C45.9082 42.4604 46.031 41.562 46.031 40.5214V28.8343H47.8925V40.767C47.8925 41.8065 47.7697 42.7782 47.523 43.682C47.2763 44.5847 46.8799 45.3743 46.3326 46.0498C45.7854 46.7252 45.069 47.2541 44.1846 47.6376C43.2991 48.0211 42.2272 48.2118 40.969 48.2118H40.9647Z" fill="black"/>
<path d="M53.757 34.5012C54.0673 34.2642 54.5639 34.0132 55.249 33.7482C55.9331 33.4842 56.741 33.3517 57.6718 33.3517C58.693 33.3517 59.6011 33.5349 60.395 33.899C61.189 34.2642 61.859 34.7748 62.4063 35.4319C62.9535 36.089 63.3682 36.8689 63.6515 37.7717C63.9338 38.6744 64.076 39.6644 64.076 40.7416C64.076 41.8911 63.9069 42.922 63.5697 43.8344C63.2314 44.7468 62.7574 45.5224 62.1466 46.1602C61.5348 46.799 60.8055 47.287 59.9566 47.6242C59.1077 47.9613 58.1641 48.1305 57.1234 48.1305C55.8641 48.1305 54.8246 48.0486 54.0037 47.8838C53.1829 47.72 52.5074 47.5466 51.9785 47.3635V26.8915L53.757 26.5629V34.5001V34.5012ZM53.757 46.1332C54.0307 46.2248 54.4368 46.311 54.9754 46.3929C55.513 46.4747 56.2207 46.5157 57.0965 46.5157C58.6294 46.5157 59.8607 46.0191 60.7915 45.0237C61.7222 44.0294 62.1876 42.601 62.1876 40.7406C62.1876 39.9563 62.1057 39.213 61.9409 38.5096C61.7771 37.8072 61.5121 37.1964 61.147 36.6761C60.7818 36.1558 60.3024 35.7411 59.7099 35.4308C59.1163 35.1206 58.3827 34.9654 57.5069 34.9654C57.0868 34.9654 56.6861 35.0064 56.3026 35.0882C55.9191 35.1701 55.5636 35.2757 55.235 35.4028C54.9065 35.531 54.6188 35.6678 54.3732 35.8132C54.1265 35.9597 53.9219 36.0966 53.757 36.2237V46.1311V46.1332Z" fill="black"/>
<path d="M78.1394 47.3093C77.6105 47.4558 76.8984 47.6195 76.0043 47.8016C75.1102 47.9836 74.0157 48.0752 72.7198 48.0752C71.6609 48.0752 70.7764 47.9201 70.0655 47.6098C69.3534 47.2996 68.7792 46.8622 68.3408 46.2956C67.9034 45.73 67.5878 45.046 67.3971 44.2435C67.2054 43.4409 67.1095 42.5554 67.1095 41.5891V33.652H68.888V41.0139C68.888 42.0179 68.9602 42.8657 69.1067 43.5594C69.2521 44.2531 69.4902 44.8144 69.8188 45.2421C70.1473 45.6708 70.5718 45.981 71.091 46.1728C71.6113 46.3645 72.2447 46.4604 72.9934 46.4604C73.8326 46.4604 74.5619 46.4152 75.1835 46.3236C75.8039 46.232 76.1961 46.1502 76.3598 46.0769V33.652H78.1383V47.3093H78.1394Z" fill="black"/>
<path d="M82.0637 34.1456C82.5926 34.0002 83.3047 33.8353 84.1988 33.6533C85.0929 33.4712 86.1874 33.3797 87.4833 33.3797C88.5595 33.3797 89.4579 33.5348 90.1797 33.845C90.9004 34.1553 91.4745 34.598 91.9044 35.1722C92.3331 35.7464 92.638 36.4358 92.8211 37.2384C93.0031 38.042 93.0947 38.9264 93.0947 39.8927V47.8018H91.3162V40.4669C91.3162 39.4639 91.2483 38.6151 91.1104 37.9213C90.9736 37.2276 90.7452 36.662 90.4264 36.2247C90.1075 35.7862 89.6874 35.4717 89.1671 35.2799C88.6468 35.0882 87.995 34.9923 87.2097 34.9923C86.3705 34.9923 85.6445 35.0375 85.0337 35.1291C84.4218 35.2207 84.0254 35.3025 83.8433 35.3758V47.8007H82.0648V34.1434L82.0637 34.1456Z" fill="black"/>
<path d="M98.5694 33.6523H104.208V35.1573H98.5694V42.684C98.5694 43.4876 98.6373 44.1393 98.7752 44.6413C98.912 45.1433 99.108 45.5311 99.3634 45.8047C99.6187 46.0784 99.9289 46.2615 100.294 46.352C100.659 46.4436 101.06 46.4888 101.498 46.4888C102.246 46.4888 102.848 46.4026 103.305 46.2292C103.761 46.0557 104.116 45.8963 104.373 45.7498L104.81 47.2278C104.555 47.3915 104.108 47.579 103.469 47.789C102.83 47.9991 102.136 48.1036 101.389 48.1036C100.513 48.1036 99.7781 47.9894 99.1856 47.761C98.5921 47.5326 98.1181 47.1858 97.7626 46.7215C97.4071 46.2561 97.1561 45.6776 97.0096 44.9839C96.8631 44.2912 96.7909 43.4693 96.7909 42.5202V29.4931L98.5694 29.1645V33.6534V33.6523Z" fill="black"/>
<path d="M117.722 47.3093C117.192 47.4558 116.481 47.6195 115.587 47.8016C114.693 47.9836 113.598 48.0752 112.302 48.0752C111.243 48.0752 110.359 47.9201 109.648 47.6098C108.936 47.2996 108.362 46.8622 107.923 46.2956C107.486 45.73 107.17 45.046 106.98 44.2435C106.788 43.4409 106.692 42.5554 106.692 41.5891V33.652H108.471V41.0139C108.471 42.0179 108.543 42.8657 108.689 43.5594C108.835 44.2531 109.073 44.8144 109.401 45.2421C109.73 45.6708 110.154 45.981 110.674 46.1728C111.194 46.3645 111.827 46.4604 112.576 46.4604C113.415 46.4604 114.145 46.4152 114.765 46.3236C115.386 46.232 115.778 46.1502 115.941 46.0769V33.652H117.72V47.3093H117.722Z" fill="black"/>
<path d="M133.568 28.6708C136.251 28.6708 138.248 29.1814 139.562 30.2037C140.876 31.226 141.532 32.676 141.532 34.5558C141.532 35.633 141.341 36.5498 140.957 37.306C140.574 38.0633 140.026 38.6741 139.315 39.1395C138.603 39.6049 137.732 39.9431 136.702 40.1521C135.671 40.3622 134.508 40.4666 133.213 40.4666H130.64V47.8016H128.779V29.1911C129.436 29.0091 130.206 28.8766 131.092 28.7947C131.976 28.7128 132.802 28.6719 133.568 28.6719V28.6708ZM133.65 30.2856C132.956 30.2856 132.368 30.3082 131.885 30.3535C131.401 30.3987 130.986 30.4407 130.639 30.4763V38.8508H132.993C133.996 38.8508 134.904 38.7915 135.716 38.673C136.529 38.5545 137.221 38.3359 137.796 38.0159C138.371 37.697 138.813 37.2543 139.124 36.6887C139.434 36.1232 139.589 35.4025 139.589 34.5267C139.589 33.6509 139.42 32.9938 139.083 32.4466C138.744 31.8993 138.298 31.4663 137.741 31.1463C137.185 30.8275 136.551 30.6034 135.839 30.4763C135.127 30.3492 134.398 30.2845 133.649 30.2845L133.65 30.2856Z" fill="black"/>
<path d="M149.034 33.3784C149.618 33.3784 150.169 33.4236 150.69 33.5152C151.21 33.6068 151.57 33.6983 151.771 33.7888L151.416 35.3217C151.269 35.2496 150.973 35.1709 150.526 35.0891C150.079 35.0072 149.491 34.9662 148.76 34.9662C147.994 34.9662 147.378 35.0212 146.913 35.13C146.447 35.2399 146.141 35.3314 145.996 35.4036V47.8016H144.218V34.3091C144.673 34.1088 145.303 33.903 146.106 33.6929C146.908 33.4829 147.884 33.3784 149.034 33.3784Z" fill="black"/>
<path d="M165.601 40.7407C165.601 41.8535 165.441 42.8661 165.121 43.7785C164.803 44.691 164.355 45.4666 163.78 46.1054C163.206 46.7442 162.525 47.2408 161.741 47.5974C160.957 47.9529 160.09 48.1306 159.141 48.1306C158.191 48.1306 157.324 47.9529 156.54 47.5974C155.755 47.2419 155.076 46.7442 154.501 46.1054C153.926 45.4666 153.479 44.692 153.16 43.7785C152.84 42.8661 152.68 41.8535 152.68 40.7407C152.68 39.6279 152.84 38.6153 153.16 37.7029C153.479 36.7904 153.926 36.0105 154.501 35.3631C155.075 34.7157 155.755 34.2137 156.54 33.8582C157.324 33.5027 158.191 33.3249 159.141 33.3249C160.09 33.3249 160.956 33.5027 161.741 33.8582C162.525 34.2137 163.205 34.7157 163.78 35.3631C164.355 36.0105 164.801 36.7904 165.121 37.7029C165.44 38.6153 165.601 39.6279 165.601 40.7407ZM163.712 40.7407C163.712 38.9708 163.302 37.5618 162.481 36.5125C161.66 35.4633 160.546 34.9387 159.142 34.9387C157.737 34.9387 156.624 35.4633 155.802 36.5125C154.981 37.5618 154.571 38.9719 154.571 40.7407C154.571 42.5095 154.981 43.9153 155.802 44.956C156.623 45.9966 157.736 46.5158 159.142 46.5158C160.547 46.5158 161.659 45.9955 162.481 44.956C163.302 43.9164 163.712 42.5117 163.712 40.7407Z" fill="black"/>
<path d="M37.173 24.2134C36.7076 24.2134 36.2746 24.1305 35.8749 23.9635C35.4753 23.7965 35.1273 23.553 34.8321 23.2331C34.537 22.9132 34.3043 22.5189 34.1341 22.0503C33.9639 21.5806 33.8788 21.0441 33.8788 20.4398C33.8788 19.8355 33.9703 19.2979 34.1546 18.8293C34.3388 18.3596 34.5833 17.9654 34.8892 17.6454C35.1952 17.3255 35.5496 17.0842 35.9525 16.9204C36.3554 16.7567 36.7766 16.6759 37.2139 16.6759C37.4854 16.6759 37.7321 16.6931 37.954 16.7276C38.1759 16.7621 38.3709 16.8063 38.5379 16.858C38.7048 16.9097 38.847 16.9625 38.9655 17.0142C39.084 17.0659 39.1745 17.1133 39.237 17.1553L39.0076 17.7704C38.8341 17.6659 38.6133 17.5636 38.345 17.4634C38.0779 17.3632 37.745 17.3126 37.3497 17.3126C36.8983 17.3126 36.503 17.389 36.1658 17.542C35.8286 17.695 35.5453 17.9104 35.3158 18.1884C35.0864 18.4663 34.914 18.797 34.7998 19.1784C34.6856 19.5608 34.6275 19.9852 34.6275 20.4506C34.6275 20.9159 34.6846 21.363 34.7998 21.7487C34.9151 22.1343 35.0831 22.4629 35.3051 22.7343C35.527 23.0058 35.8006 23.2137 36.1238 23.3602C36.4469 23.5056 36.8175 23.5789 37.2344 23.5789C37.6933 23.5789 38.0768 23.5358 38.3871 23.4486C38.6962 23.3613 38.9311 23.273 39.0905 23.1825L39.2887 23.7868C39.2402 23.8213 39.1562 23.8611 39.0388 23.9064C38.9203 23.9516 38.7716 23.999 38.5907 24.0475C38.4097 24.096 38.2018 24.1358 37.9648 24.1671C37.7289 24.1983 37.4639 24.2145 37.1719 24.2145L37.173 24.2134Z" fill="black"/>
<path d="M41.9969 18.542C42.3513 18.542 42.6518 18.5927 42.8985 18.6928C43.1452 18.7941 43.3445 18.9331 43.4975 19.1097C43.6504 19.2875 43.7614 19.4975 43.8314 19.741C43.9003 19.9845 43.9359 20.2484 43.9359 20.5338V23.9326C43.8659 23.953 43.7657 23.9756 43.6332 24.0004C43.5007 24.0252 43.3477 24.0511 43.1743 24.0791C43.0008 24.1071 42.808 24.1297 42.5958 24.1469C42.3836 24.1642 42.166 24.1728 41.9441 24.1728C41.6586 24.1728 41.3968 24.1415 41.1566 24.0791C40.9164 24.0166 40.7085 23.9175 40.5307 23.7817C40.353 23.646 40.214 23.4726 40.1138 23.2604C40.0126 23.0481 39.963 22.7896 39.963 22.4837C39.963 22.1777 40.019 21.9418 40.13 21.7328C40.2409 21.5238 40.3971 21.3526 40.5997 21.2168C40.8011 21.0811 41.0413 20.982 41.3193 20.9195C41.5972 20.857 41.8999 20.8258 42.2263 20.8258C42.3233 20.8258 42.4256 20.8312 42.5344 20.8419C42.6421 20.8527 42.7466 20.8667 42.8468 20.884C42.947 20.9012 43.0342 20.9184 43.1075 20.9357C43.1807 20.9529 43.2303 20.9691 43.2583 20.9831V20.6491C43.2583 20.4617 43.2443 20.2785 43.2163 20.1019C43.1883 19.9241 43.128 19.7647 43.0342 19.6225C42.9405 19.4803 42.808 19.365 42.6378 19.2789C42.4676 19.1916 42.2435 19.1485 41.9656 19.1485C41.5692 19.1485 41.274 19.1765 41.079 19.2315C40.8841 19.2875 40.7419 19.3327 40.6514 19.3672L40.5577 18.7726C40.6761 18.7165 40.8582 18.6648 41.1049 18.6164C41.3516 18.5679 41.6489 18.5431 41.9969 18.5431V18.542ZM42.0593 23.5674C42.3233 23.5674 42.5549 23.5588 42.7531 23.5415C42.9513 23.5243 43.1193 23.5017 43.2583 23.4737V21.5755C43.1818 21.5411 43.0601 21.5044 42.8931 21.4657C42.7261 21.428 42.4967 21.4086 42.2048 21.4086C42.0378 21.4086 41.8644 21.4204 41.6834 21.4452C41.5024 21.47 41.3354 21.5217 41.1825 21.6014C41.0295 21.6811 40.9045 21.791 40.8076 21.93C40.7106 22.0689 40.6621 22.2531 40.6621 22.4826C40.6621 22.684 40.6955 22.8542 40.7613 22.9932C40.827 23.1322 40.9207 23.2431 41.0424 23.3271C41.1641 23.4101 41.3096 23.4715 41.4809 23.5092C41.6511 23.548 41.8439 23.5663 42.0593 23.5663V23.5674Z" fill="black"/>
<path d="M45.3997 18.8556C45.6011 18.7996 45.8726 18.7371 46.213 18.6681C46.5534 18.5992 46.9703 18.5637 47.4637 18.5637C47.8741 18.5637 48.2156 18.6229 48.4903 18.7403C48.765 18.8588 48.9837 19.0269 49.1474 19.2455C49.3111 19.4642 49.4275 19.7271 49.4964 20.033C49.5654 20.339 49.6009 20.6761 49.6009 21.0445V24.0576H48.9233V21.2632C48.9233 20.8808 48.8975 20.5576 48.8447 20.2937C48.793 20.0298 48.7057 19.8143 48.584 19.6474C48.4623 19.4804 48.3028 19.3608 48.1046 19.2876C47.9064 19.2143 47.6576 19.1777 47.3592 19.1777C47.0392 19.1777 46.7635 19.1949 46.5308 19.2294C46.2981 19.2639 46.1462 19.2951 46.0772 19.3231V24.0565H45.3997V18.8534V18.8556Z" fill="black"/>
<path d="M55.6842 21.3676C55.6842 21.7921 55.6228 22.1777 55.5021 22.5246C55.3804 22.8725 55.2102 23.1677 54.9915 23.4112C54.7728 23.6546 54.5132 23.8442 54.2148 23.98C53.9153 24.1157 53.5857 24.1836 53.2238 24.1836C52.8618 24.1836 52.5322 24.1157 52.2338 23.98C51.9343 23.8442 51.6758 23.6546 51.4571 23.4112C51.2384 23.1677 51.0682 22.8725 50.9465 22.5246C50.8247 22.1766 50.7644 21.791 50.7644 21.3676C50.7644 20.9443 50.8247 20.5575 50.9465 20.2107C51.0682 19.8627 51.2384 19.5665 51.4571 19.3187C51.6758 19.072 51.9354 18.8803 52.2338 18.7456C52.5322 18.6099 52.8629 18.542 53.2238 18.542C53.5846 18.542 53.9153 18.6099 54.2148 18.7456C54.5132 18.8814 54.7728 19.072 54.9915 19.3187C55.2102 19.5654 55.3804 19.8627 55.5021 20.2107C55.6239 20.5586 55.6842 20.9443 55.6842 21.3676ZM54.9646 21.3676C54.9646 20.6933 54.8084 20.1568 54.4949 19.7572C54.1825 19.3575 53.7581 19.1571 53.2227 19.1571C52.6873 19.1571 52.2639 19.3575 51.9505 19.7572C51.6381 20.1568 51.4808 20.6944 51.4808 21.3676C51.4808 22.0409 51.637 22.5774 51.9505 22.9738C52.2639 23.3702 52.6873 23.5684 53.2227 23.5684C53.7581 23.5684 54.1825 23.3702 54.4949 22.9738C54.8073 22.5774 54.9646 22.042 54.9646 21.3676Z" fill="black"/>
<path d="M56.9047 18.8556C57.1061 18.7996 57.3776 18.7371 57.718 18.6681C58.0584 18.5992 58.4753 18.5637 58.9687 18.5637C59.3791 18.5637 59.7206 18.6229 59.9953 18.7403C60.27 18.8588 60.4887 19.0269 60.6524 19.2455C60.8161 19.4642 60.9325 19.7271 61.0014 20.033C61.0704 20.339 61.1059 20.6761 61.1059 21.0445V24.0576H60.4283V21.2632C60.4283 20.8808 60.4025 20.5576 60.3497 20.2937C60.298 20.0298 60.2107 19.8143 60.089 19.6474C59.9673 19.4804 59.8078 19.3608 59.6096 19.2876C59.4114 19.2143 59.1626 19.1777 58.8642 19.1777C58.5442 19.1777 58.2685 19.1949 58.0358 19.2294C57.8031 19.2639 57.6512 19.2951 57.5822 19.3231V24.0565H56.9047V18.8534V18.8556Z" fill="black"/>
<path d="M63.3759 17.0401C63.3759 17.1996 63.3274 17.3267 63.2294 17.4204C63.1324 17.5141 63.0139 17.5615 62.8749 17.5615C62.736 17.5615 62.6175 17.5141 62.5205 17.4204C62.4236 17.3267 62.374 17.1996 62.374 17.0401C62.374 16.8807 62.4225 16.7536 62.5205 16.6599C62.6175 16.5662 62.736 16.5188 62.8749 16.5188C63.0139 16.5188 63.1324 16.5662 63.2294 16.6599C63.3263 16.7536 63.3759 16.8807 63.3759 17.0401ZM63.2197 24.0573H62.5421V18.6668H63.2197V24.0573Z" fill="black"/>
<path d="M66.9641 24.1723C66.5472 24.1723 66.1788 24.1066 65.8588 23.9741C65.5389 23.8427 65.2728 23.6531 65.0616 23.4064C64.8494 23.1597 64.6878 22.8646 64.5769 22.5198C64.4659 22.1762 64.4099 21.7949 64.4099 21.378C64.4099 20.9611 64.467 20.5679 64.5823 20.221C64.6965 19.8731 64.8624 19.5747 65.0778 19.3247C65.2933 19.0748 65.5539 18.882 65.8599 18.7463C66.1658 18.6105 66.5095 18.5427 66.8919 18.5427C67.1838 18.5427 67.4564 18.5674 67.7106 18.6159C67.9637 18.6644 68.1609 18.7269 68.2998 18.8034L68.1232 19.3872C67.9842 19.3183 67.828 19.2623 67.6535 19.2202C67.4801 19.1782 67.2463 19.1578 66.9544 19.1578C66.3565 19.1578 65.903 19.3506 65.5938 19.7362C65.2846 20.1219 65.1295 20.6691 65.1295 21.378C65.1295 21.6979 65.164 21.992 65.234 22.2592C65.3029 22.5263 65.4161 22.7558 65.5733 22.9475C65.7295 23.1393 65.931 23.2879 66.1777 23.3956C66.4244 23.5034 66.7249 23.5572 67.0793 23.5572C67.3713 23.5572 67.6158 23.5238 67.814 23.4581C68.0122 23.3924 68.1566 23.3353 68.2471 23.2858L68.3925 23.8696C68.2675 23.9397 68.0715 24.0064 67.8032 24.0732C67.535 24.1389 67.256 24.1723 66.9641 24.1723Z" fill="black"/>
<path d="M71.0437 18.542C71.3981 18.542 71.6987 18.5927 71.9454 18.6928C72.1921 18.7941 72.3914 18.9331 72.5443 19.1097C72.6973 19.2875 72.8083 19.4975 72.8783 19.741C72.9472 19.9845 72.9828 20.2484 72.9828 20.5338V23.9326C72.9127 23.953 72.8126 23.9756 72.6801 24.0004C72.5476 24.0252 72.3946 24.0511 72.2212 24.0791C72.0477 24.1071 71.8549 24.1297 71.6427 24.1469C71.4305 24.1642 71.2128 24.1728 70.9909 24.1728C70.7055 24.1728 70.4437 24.1415 70.2035 24.0791C69.9632 24.0166 69.7553 23.9175 69.5776 23.7817C69.3998 23.646 69.2609 23.4726 69.1607 23.2604C69.0594 23.0481 69.0099 22.7896 69.0099 22.4837C69.0099 22.1777 69.0659 21.9418 69.1769 21.7328C69.2878 21.5238 69.444 21.3526 69.6465 21.2168C69.848 21.0811 70.0882 20.982 70.3661 20.9195C70.6441 20.857 70.9468 20.8258 71.2732 20.8258C71.3701 20.8258 71.4725 20.8312 71.5813 20.8419C71.689 20.8527 71.7935 20.8667 71.8937 20.884C71.9939 20.9012 72.0811 20.9184 72.1544 20.9357C72.2276 20.9529 72.2772 20.9691 72.3052 20.9831V20.6491C72.3052 20.4617 72.2912 20.2785 72.2632 20.1019C72.2352 19.9241 72.1748 19.7647 72.0811 19.6225C71.9874 19.4803 71.8549 19.365 71.6847 19.2789C71.5145 19.1916 71.2904 19.1485 71.0125 19.1485C70.6161 19.1485 70.3209 19.1765 70.1259 19.2315C69.9309 19.2875 69.7887 19.3327 69.6982 19.3672L69.6045 18.7726C69.723 18.7165 69.9051 18.6648 70.1518 18.6164C70.3985 18.5679 70.6958 18.5431 71.0437 18.5431V18.542ZM71.1062 23.5674C71.3701 23.5674 71.6017 23.5588 71.7999 23.5415C71.9982 23.5243 72.1662 23.5017 72.3052 23.4737V21.5755C72.2287 21.5411 72.107 21.5044 71.94 21.4657C71.773 21.428 71.5436 21.4086 71.2516 21.4086C71.0847 21.4086 70.9112 21.4204 70.7302 21.4452C70.5493 21.47 70.3823 21.5217 70.2293 21.6014C70.0764 21.6811 69.9514 21.791 69.8544 21.93C69.7575 22.0689 69.709 22.2531 69.709 22.4826C69.709 22.684 69.7424 22.8542 69.8081 22.9932C69.8738 23.1322 69.9676 23.2431 70.0893 23.3271C70.211 23.4101 70.3564 23.4715 70.5277 23.5092C70.6979 23.548 70.8908 23.5663 71.1062 23.5663V23.5674Z" fill="black"/>
<path d="M75.7985 24.151C75.569 24.1434 75.3686 24.1143 75.1984 24.0626C75.0282 24.0109 74.886 23.9301 74.7708 23.8224C74.6555 23.7147 74.5693 23.5757 74.5101 23.4055C74.4508 23.2353 74.4218 23.022 74.4218 22.7646V16.0921L75.0993 15.9671V22.7441C75.0993 22.9111 75.1144 23.0446 75.1467 23.1459C75.178 23.2472 75.2254 23.3269 75.2879 23.3861C75.3503 23.4454 75.4322 23.4885 75.5324 23.5165C75.6326 23.5445 75.7532 23.5682 75.8922 23.5897L75.7985 24.1531V24.151Z" fill="black"/>
</g>
<defs>
<clipPath id="clip0_46_3256">
<rect width="165.601" height="48.2121" fill="white"/>
</clipPath>
</defs>
</svg>
