<svg width="256" height="256" viewBox="0 0 256 256" fill="none" xmlns="http://www.w3.org/2000/svg">
<path fill-rule="evenodd" clip-rule="evenodd" d="M24 59.6516C24 50.4576 30.2683 42.4479 39.1928 40.238L119.292 20.4038C125.666 18.8256 132.33 18.8406 138.697 20.4477L216.895 40.1871C225.777 42.4291 232 50.4185 232 59.5788V143C227.737 185.278 145.679 235.502 133.258 235.927L129 236C110.333 236 28.3811 183.453 24 140V59.6516Z" fill="url(#paint0_linear_3_20)"/>
<mask id="mask0_3_20" style="mask-type:alpha" maskUnits="userSpaceOnUse" x="24" y="15" width="208" height="217">
<path fill-rule="evenodd" clip-rule="evenodd" d="M24 55.6516C24 46.4576 30.2683 38.4479 39.1928 36.238L119.292 16.4038C125.666 14.8256 132.33 14.8406 138.697 16.4477L216.895 36.1871C225.777 38.4291 232 46.4185 232 55.5788V139C227.737 181.278 145.679 231.502 133.258 231.927L129 232C110.333 232 28.3811 179.453 24 136V55.6516Z" fill="url(#paint1_linear_3_20)"/>
</mask>
<g mask="url(#mask0_3_20)">
<rect x="8.00006" y="8" width="240" height="240" fill="url(#paint2_linear_3_20)"/>
<rect x="125.236" y="-90.0211" width="157.257" height="250.65" transform="rotate(45 125.236 -90.0211)" fill="url(#paint3_linear_3_20)"/>
</g>
<g filter="url(#filter0_d_3_20)">
<path d="M184.309 84.7696L110.77 158.309L74 121.539" stroke="white" stroke-width="16"/>
</g>
<path fill-rule="evenodd" clip-rule="evenodd" d="M39.1928 36.238C30.2683 38.4479 24 46.4576 24 55.6517V59.6517C24 50.4576 30.2683 42.4479 39.1928 40.238L119.292 20.4038C125.666 18.8256 132.33 18.8407 138.697 20.4478L216.895 40.1871C225.777 42.4291 232 50.4185 232 59.5788V55.5788C232 46.4185 225.777 38.4291 216.895 36.1871L138.697 16.4478C132.33 14.8407 125.666 14.8256 119.292 16.4038L39.1928 36.238Z" fill="url(#paint4_linear_3_20)"/>
<defs>
<filter id="filter0_d_3_20" x="60.3432" y="75.1127" width="137.622" height="106.51" filterUnits="userSpaceOnUse" color-interpolation-filters="sRGB">
<feFlood flood-opacity="0" result="BackgroundImageFix"/>
<feColorMatrix in="SourceAlpha" type="matrix" values="0 0 0 0 0 0 0 0 0 0 0 0 0 0 0 0 0 0 127 0" result="hardAlpha"/>
<feOffset dy="4"/>
<feGaussianBlur stdDeviation="4"/>
<feComposite in2="hardAlpha" operator="out"/>
<feColorMatrix type="matrix" values="0 0 0 0 0 0 0 0 0 0 0 0 0 0 0 0 0 0 0.2 0"/>
<feBlend mode="normal" in2="BackgroundImageFix" result="effect1_dropShadow_3_20"/>
<feBlend mode="normal" in="SourceGraphic" in2="effect1_dropShadow_3_20" result="shape"/>
</filter>
<linearGradient id="paint0_linear_3_20" x1="128" y1="18" x2="128" y2="236" gradientUnits="userSpaceOnUse">
<stop offset="0.308218" stop-color="#EC531D"/>
<stop offset="1" stop-color="#BE502A"/>
</linearGradient>
<linearGradient id="paint1_linear_3_20" x1="137.167" y1="-61.2138" x2="131.587" y2="232.049" gradientUnits="userSpaceOnUse">
<stop stop-color="#F6F5F4"/>
<stop offset="1" stop-color="#DEDDDA"/>
</linearGradient>
<linearGradient id="paint2_linear_3_20" x1="128" y1="128" x2="193.379" y2="200.919" gradientUnits="userSpaceOnUse">
<stop stop-color="#F47842"/>
<stop offset="1" stop-color="#EC531D"/>
</linearGradient>
<linearGradient id="paint3_linear_3_20" x1="147.201" y1="35.5281" x2="283.969" y2="33.1287" gradientUnits="userSpaceOnUse">
<stop stop-color="#F47842"/>
<stop offset="1" stop-color="#EC531D"/>
</linearGradient>
<linearGradient id="paint4_linear_3_20" x1="128" y1="-19" x2="128.785" y2="69.9931" gradientUnits="userSpaceOnUse">
<stop stop-color="white"/>
<stop offset="1" stop-color="white" stop-opacity="0"/>
</linearGradient>
</defs>
</svg>
